<svg fill="none" height="16" viewBox="0 0 16 16" width="16" xmlns="http://www.w3.org/2000/svg"><g fill="#212121"><path d="m7.5 3.5c-.55912 0-1.08252.15296-1.53063.41931-.06117-.54773-.2155-1.02309-.47861-1.44694.60477-.30229 1.28714-.47237 2.00924-.47237 2.31628 0 4.2238 1.75002 4.4725 4h1.2775c.9665 0 1.75.7835 1.75 1.75v4.5c0 .9665-.7835 1.75-1.75 1.75h-4.5c-.9665 0-1.75-.7835-1.75-1.75v-1.2775c-.35271-.039-.69313-.1187-1.01646-.2344.01088-.2358.01652-.4817.01652-.7381l.00004-.08041c.00013-.2396.0003-.52237-.00969-.82651.30618.17863.64685.30458 1.00959.36544v-1.70852c0-.9665.7835-1.75 1.75-1.75h1.7085c-.238-1.41886-1.472-2.5-2.9585-2.5zm4.3885 4c-.3818 1.68238-1.7061 3.0067-3.3885 3.3885v1.3615c0 .1381.11193.25.25.25h4.5c.1381 0 .25-.1119.25-.25v-4.5c0-.13807-.1119-.25-.25-.25zm-1.5592 0h-1.5793c-.13807 0-.25.11193-.25.25v1.57929c.85241-.30128 1.528-.97688 1.8293-1.82929z"/><path d="m3.5809 1.12516c.16615.14668.2155.3847.12291.58474-.00085.00233-.00244.00689-.0043.0134-.00548.01918-.01201.05056-.01201.0892 0 .06382.01595.18385.16605.33395.07301.07301.1292.12481.19045.18129.04968.0458.10268.09468.1707.16043.12856.12427.2666.2699.38883.45323.25525.38288.39647.86126.39647 1.5586 0 .83185-.30037 1.54308-.7717 1.99183.29159.29626.46173.68359.56666 1.06925.20518.75406.2051 1.68362.20505 2.40326l-.00001.03566c0 2.0582-.38539 3.2808-.82125 4.0072-.21852.3642-.44693.5987-.6374.7469-.09473.0736-.17854.1248-.24489.1595-.03313.0174-.06178.0306-.08512.0404 0 0-.12688.046-.21134.046s-.21133-.046-.21133-.046c-.02335-.0098-.052-.023-.08512-.0404-.06635-.0347-.15017-.0859-.24489-.1595-.19048-.1482-.41888-.3827-.6374-.7469-.43586-.7264-.82126-1.949-.82126-4.0072v-.03566c-.000055-.71964-.000129-1.6492.20504-2.40326.10494-.38566.27507-.77299.56666-1.06925-.47133-.44875-.7717-1.15997-.7717-1.99183 0-.32567.08733-.71543.20709-1.07379.12032-.36005.28821-.73251.48154-1.03213.23145-.39021.55679-.71674.80808-.93754.12951-.11379.24579-.20506.33046-.26843.04244-.03177.07725-.05676.10219-.0743l.0298-.0207.00889-.00604.00284-.00192.00176-.00117c.18864-.125762.43829-.108857.60825.04118z"/></g></svg>